<svg width="22" height="23" viewBox="0 0 22 23" fill="none" xmlns="http://www.w3.org/2000/svg">
<path d="M20.7891 1.47999L21.3791 2.06999C22.1921 2.88399 22.0691 4.32699 21.1021 5.29299L8.93505 17.46L4.99305 18.902C4.49805 19.084 4.01605 18.848 3.91805 18.377C3.88493 18.2061 3.90053 18.0294 3.96305 17.867L5.43305 13.891L17.5661 1.75699C18.5331 0.790995 19.9761 0.665995 20.7891 1.47999ZM8.40405 2.68999C8.53537 2.68999 8.66541 2.71586 8.78674 2.76612C8.90806 2.81637 9.0183 2.89003 9.11116 2.98289C9.20402 3.07575 9.27768 3.18599 9.32793 3.30731C9.37819 3.42864 9.40405 3.55867 9.40405 3.68999C9.40405 3.82132 9.37819 3.95135 9.32793 4.07268C9.27768 4.194 9.20402 4.30424 9.11116 4.3971C9.0183 4.48996 8.90806 4.56362 8.78674 4.61387C8.66541 4.66413 8.53537 4.68999 8.40405 4.68999H4.40405C3.87362 4.68999 3.36491 4.90071 2.98984 5.27578C2.61477 5.65085 2.40405 6.15956 2.40405 6.68999V18.69C2.40405 19.2204 2.61477 19.7291 2.98984 20.1042C3.36491 20.4793 3.87362 20.69 4.40405 20.69H16.4041C16.9345 20.69 17.4432 20.4793 17.8183 20.1042C18.1933 19.7291 18.4041 19.2204 18.4041 18.69V14.69C18.4041 14.4248 18.5094 14.1704 18.6969 13.9829C18.8845 13.7954 19.1388 13.69 19.4041 13.69C19.6693 13.69 19.9236 13.7954 20.1112 13.9829C20.2987 14.1704 20.4041 14.4248 20.4041 14.69V18.69C20.4041 19.7509 19.9826 20.7683 19.2325 21.5184C18.4823 22.2686 17.4649 22.69 16.4041 22.69H4.40405C3.34319 22.69 2.32577 22.2686 1.57563 21.5184C0.82548 20.7683 0.404053 19.7509 0.404053 18.69V6.68999C0.404053 5.62913 0.82548 4.61171 1.57563 3.86157C2.32577 3.11142 3.34319 2.68999 4.40405 2.68999H8.40405Z" fill="#5E5F60"/>
</svg>
