<svg width="16" height="16" viewBox="0 0 16 16" fill="none" xmlns="http://www.w3.org/2000/svg">
<path d="M11.6 2.40002C12.1078 2.39995 12.5966 2.59301 12.9673 2.94006C13.3379 3.2871 13.5627 3.76214 13.596 4.26882L13.6 4.40002V11.6C13.6001 12.1078 13.407 12.5966 13.06 12.9673C12.7129 13.3379 12.2379 13.5627 11.7312 13.596L11.6 13.6H4.40002C3.89225 13.6001 3.40346 13.407 3.03279 13.06C2.66212 12.7129 2.43733 12.2379 2.40402 11.7312L2.40002 11.6V4.40002C2.39995 3.89225 2.59301 3.40346 2.94006 3.03279C3.2871 2.66212 3.76214 2.43733 4.26882 2.40402L4.40002 2.40002H11.6ZM12.8 5.60002H3.20002V11.6C3.20004 11.8983 3.31116 12.1859 3.51172 12.4068C3.71228 12.6276 3.9879 12.7658 4.28482 12.7944L4.40002 12.8H11.6C11.8982 12.8 12.1857 12.689 12.4065 12.4886C12.6273 12.2882 12.7656 12.0128 12.7944 11.716L12.8 11.6V5.60002ZM9.21282 6.58722C9.64002 6.58722 9.97842 6.70082 10.2288 6.92802C10.4784 7.15522 10.604 7.46242 10.604 7.84962C10.604 8.07362 10.5464 8.27122 10.432 8.44562C10.3149 8.62157 10.1531 8.76321 9.96322 8.85602C10.2008 8.96642 10.3832 9.11762 10.5112 9.30962C10.6392 9.50162 10.7032 9.71762 10.7032 9.95922C10.7032 10.3592 10.568 10.6768 10.2976 10.9112C10.0264 11.1456 9.66563 11.2632 9.21602 11.2632C8.76402 11.2632 8.40242 11.1448 8.13042 10.9096C7.85842 10.6736 7.72242 10.3576 7.72242 9.95922C7.72242 9.71602 7.78642 9.49682 7.91602 9.30322C8.04562 9.10962 8.22642 8.96082 8.46002 8.85602C8.2717 8.76279 8.11156 8.62115 7.99602 8.44562C7.88133 8.26827 7.82201 8.0608 7.82562 7.84962C7.82562 7.46242 7.95042 7.15522 8.20082 6.92802C8.45042 6.70082 8.78802 6.58722 9.21282 6.58722ZM6.79682 6.63442V11.2H6.04082V7.54722L4.92482 7.92802V7.28802L6.70002 6.63442H6.79682ZM9.20962 9.16882C8.98882 9.16882 8.81282 9.23762 8.68002 9.37522C8.54802 9.51282 8.48162 9.69522 8.48162 9.92162C8.48162 10.1448 8.54722 10.3232 8.67762 10.456C8.80722 10.5896 8.98723 10.656 9.21602 10.656C9.44562 10.656 9.62402 10.592 9.75202 10.4624C9.88002 10.3336 9.94402 10.1528 9.94402 9.92162C9.94402 9.69762 9.87762 9.51522 9.74242 9.37682C9.60803 9.23762 9.43042 9.16882 9.20962 9.16882ZM9.21282 7.19682C9.01922 7.19682 8.86643 7.25762 8.75362 7.38002C8.64162 7.50162 8.58562 7.66802 8.58562 7.87842C8.58562 8.08642 8.64162 8.25202 8.75522 8.37442C8.86882 8.49762 9.02242 8.55922 9.21602 8.55922C9.40963 8.55922 9.56402 8.49762 9.67762 8.37522C9.79042 8.25202 9.84722 8.08722 9.84722 7.87842C9.85438 7.69941 9.79318 7.52437 9.67602 7.38882C9.61767 7.32475 9.54591 7.27432 9.46585 7.24113C9.38579 7.20794 9.2994 7.19282 9.21282 7.19682ZM11.6 3.20002H4.40002C4.10172 3.20004 3.81411 3.31116 3.59329 3.51172C3.37247 3.71228 3.23426 3.9879 3.20562 4.28482L3.20002 4.40002V4.80002H12.8V4.40002C12.8 4.10184 12.689 3.81434 12.4886 3.59354C12.2882 3.37274 12.0128 3.23445 11.716 3.20562L11.6 3.20002Z" fill="#6B6B6B"/>
</svg>
