<svg width="16" height="16" viewBox="0 0 16 16" fill="none" xmlns="http://www.w3.org/2000/svg">
<path d="M8.87328 6.76156C8.92867 6.57708 8.96661 6.38781 8.98661 6.19623C8.99783 6.10385 9.04267 6.01884 9.11258 5.95742C9.18248 5.896 9.27256 5.86247 9.36561 5.86323H10.2566C10.4859 5.86323 10.6623 6.06123 10.6423 6.28923C10.4389 8.58823 8.60761 10.4196 6.30894 10.6226C6.25515 10.6279 6.20085 10.6219 6.14951 10.605C6.09817 10.5881 6.05093 10.5606 6.0108 10.5244C5.97067 10.4882 5.93854 10.444 5.91647 10.3947C5.89439 10.3453 5.88286 10.2919 5.88261 10.2379V9.44356C5.88261 9.15356 6.02461 8.98756 6.21594 8.96756C6.40739 8.94727 6.59654 8.90922 6.78094 8.8539C6.89035 8.82147 7.00649 8.81926 7.11705 8.84748C7.22761 8.87571 7.32847 8.93333 7.40894 9.01423L7.79028 9.39556C8.47792 9.02301 9.04239 8.45854 9.41494 7.7709L9.03328 7.38956C8.95238 7.30909 8.89476 7.20823 8.86653 7.09767C8.8383 6.98711 8.84052 6.87097 8.87294 6.76156M7.38361 5.77856C6.69609 6.15117 6.13175 6.71564 5.75928 7.40323" stroke="#F04C29" stroke-linecap="round" stroke-linejoin="round"/>
<path d="M12.7767 11.4529C14.8524 9.44025 14.8524 6.55959 12.7767 4.54692C12.3323 4.10903 11.8912 3.66779 11.4534 3.22325C9.44104 1.14759 6.56004 1.14759 4.54738 3.22325C4.10937 3.66768 3.66803 4.10881 3.22338 4.54659C1.14771 6.55925 1.14771 9.43992 3.22338 11.4526C3.66793 11.8905 4.10916 12.3317 4.54704 12.7763C6.55938 14.8519 9.44038 14.8519 11.453 12.7763C11.8909 12.3317 12.3322 11.8908 12.7767 11.4529Z" stroke="#F04C29" stroke-linecap="round" stroke-linejoin="round"/>
<path d="M11.5613 10.4807C12.0717 9.7538 12.3446 8.88681 12.3427 7.99867C12.3427 5.60201 10.4003 3.65601 8.00001 3.65601C5.59968 3.65601 3.65735 5.60167 3.65735 7.99867C3.65735 10.3987 5.59968 12.345 8.00001 12.345C8.92668 12.345 9.78235 12.0573 10.4857 11.5637H10.4853L12.8947 13.973C13.0377 14.116 13.2316 14.1963 13.4338 14.1963C13.6361 14.1963 13.83 14.116 13.973 13.973C14.116 13.83 14.1963 13.6361 14.1963 13.4338C14.1963 13.2316 14.116 13.0377 13.973 12.8947L11.5603 10.4817L11.5613 10.4807Z" stroke="#F04C29" stroke-linecap="round" stroke-linejoin="round"/>
</svg>
