<svg width="16" height="16" viewBox="0 0 16 16" fill="none" xmlns="http://www.w3.org/2000/svg">
<path d="M8.48 7.2C8.16 7.12 7.84 6.96 7.6 6.72C7.36 6.64 7.28 6.4 7.28 6.24C7.28 6.08 7.36 5.84 7.52 5.76C7.76 5.6 8 5.44 8.24 5.52C8.72 5.52 9.12 5.76 9.36 6.08L10.08 5.12C9.84 4.88 9.6 4.72 9.36 4.56C9.12 4.4 8.8 4.32 8.48 4.32V3.2H7.52V4.32C7.12 4.4 6.72 4.64 6.4 4.96C6.08 5.36 5.84 5.84 5.92 6.32C5.92 6.8 6.08 7.28 6.4 7.6C6.8 8 7.36 8.24 7.84 8.48C8.08 8.56 8.4 8.72 8.64 8.88C8.8 9.04 8.88 9.28 8.88 9.52C8.88 9.76 8.8 10 8.64 10.24C8.4 10.48 8.08 10.56 7.84 10.56C7.52 10.56 7.12 10.48 6.88 10.24C6.64 10.08 6.4 9.84 6.24 9.6L5.44 10.48C5.68 10.8 5.92 11.04 6.24 11.28C6.64 11.52 7.12 11.76 7.6 11.76V12.8H8.48V11.6C8.96 11.52 9.36 11.28 9.68 10.96C10.08 10.56 10.32 9.92 10.32 9.36C10.32 8.88 10.16 8.32 9.76 8C9.36 7.6 8.96 7.36 8.48 7.2ZM8 1.6C4.48 1.6 1.6 4.48 1.6 8C1.6 11.52 4.48 14.4 8 14.4C11.52 14.4 14.4 11.52 14.4 8C14.4 4.48 11.52 1.6 8 1.6ZM8 13.52C4.96 13.52 2.48 11.04 2.48 8C2.48 4.96 4.96 2.48 8 2.48C11.04 2.48 13.52 4.96 13.52 8C13.52 11.04 11.04 13.52 8 13.52Z" fill="#F04C29"/>
</svg>
