<svg width="24" height="20" viewBox="0 0 24 20" fill="none" xmlns="http://www.w3.org/2000/svg">
<g clip-path="url(#clip0_1_1722)">
<path d="M5.45456 18.9925V9.68366L2.57878 7.04254L0 5.5769V17.3497C0 18.2587 0.733594 18.9925 1.63641 18.9925H5.45456Z" fill="#4285F4"/>
<path d="M18.5454 18.9926H22.3636C23.2691 18.9926 24 18.2561 24 17.3499V5.57715L21.0791 7.25586L18.5454 9.68381V18.9926Z" fill="#34A853"/>
<path d="M5.45454 9.68384L5.06323 6.04661L5.45454 2.56543L12 7.49361L18.5454 2.56543L18.9831 5.85867L18.5454 9.68384L12 14.612L5.45454 9.68384Z" fill="#EA4335"/>
<path d="M18.5454 2.56531V9.68372L24 5.57696V3.38664C24 1.35519 21.69 0.197121 20.0728 1.41543L18.5454 2.56531Z" fill="#FBBC04"/>
<path d="M0 5.577L2.50866 7.46587L5.45456 9.68376V2.56535L3.92719 1.41547C2.30719 0.19707 0 1.35524 0 3.38659V5.577Z" fill="#C5221F"/>
</g>
<defs>
<clipPath id="clip0_1_1722">
<rect width="24" height="18.164" fill="white" transform="translate(0 0.917969)"/>
</clipPath>
</defs>
</svg>
