<svg width="14" height="17" viewBox="0 0 14 17" fill="none" xmlns="http://www.w3.org/2000/svg">
<path fill-rule="evenodd" clip-rule="evenodd" d="M0.274 6.12601C1.78814e-07 6.72301 0 7.40201 0 8.76001V13C0 14.887 -5.96046e-08 15.83 0.586 16.415C1.117 16.947 1.943 16.995 3.5 17V12C3.5 11.4696 3.71071 10.9609 4.08579 10.5858C4.46086 10.2107 4.96957 10 5.5 10H8.5C9.03043 10 9.53914 10.2107 9.91421 10.5858C10.2893 10.9609 10.5 11.4696 10.5 12V17C12.057 16.995 12.883 16.946 13.414 16.414C14 15.828 14 14.886 14 13V8.76001C14 7.40201 14 6.72301 13.726 6.12601C13.451 5.52901 12.936 5.08801 11.905 4.20401L10.905 3.34701C9.04 1.75001 8.11 0.950012 7 0.950012C5.89 0.950012 4.959 1.74901 3.095 3.34601L2.095 4.20301C1.065 5.08701 0.549 5.52801 0.275 6.12501M8.5 17V12H5.5V17H8.5Z" fill="#20473E"/>
</svg>
