<svg width="24" height="24" viewBox="0 0 24 24" fill="none" xmlns="http://www.w3.org/2000/svg">
<path d="M0.85714 13.7143C2.67577 13.7143 4.41991 14.4367 5.70587 15.7227C6.99184 17.0087 7.71428 18.7528 7.71428 20.5714M0.85714 18C1.53912 18 2.19318 18.2709 2.67541 18.7532C3.15765 19.2354 3.42857 19.8895 3.42857 20.5714M12 20.5714H21.4286C21.8832 20.5714 22.3193 20.3908 22.6408 20.0693C22.9622 19.7479 23.1429 19.3118 23.1429 18.8572V5.14287C23.1429 4.68822 22.9622 4.25218 22.6408 3.93069C22.3193 3.6092 21.8832 3.42859 21.4286 3.42859H2.57143C2.11677 3.42859 1.68073 3.6092 1.35924 3.93069C1.03775 4.25218 0.85714 4.68822 0.85714 5.14287V9.42859" stroke="#20473E" stroke-width="1.71429" stroke-linecap="round" stroke-linejoin="round"/>
</svg>
