<svg width="16" height="17" viewBox="0 0 16 17" fill="none" xmlns="http://www.w3.org/2000/svg">
<path d="M12.5 7C12.5 5.80653 12.0259 4.66193 11.182 3.81802C10.3381 2.97411 9.19347 2.5 8 2.5C6.80653 2.5 5.66193 2.97411 4.81802 3.81802C3.97411 4.66193 3.5 5.80653 3.5 7C3.5 8.846 4.977 11.252 8 14.134C11.023 11.252 12.5 8.846 12.5 7ZM8 15.5C4.333 12.167 2.5 9.333 2.5 7C2.5 5.54131 3.07946 4.14236 4.11091 3.11091C5.14236 2.07946 6.54131 1.5 8 1.5C9.45869 1.5 10.8576 2.07946 11.8891 3.11091C12.9205 4.14236 13.5 5.54131 13.5 7C13.5 9.333 11.667 12.167 8 15.5Z" fill="white" fill-opacity="0.6"/>
<path d="M8 8.5C8.39782 8.5 8.77936 8.34196 9.06066 8.06066C9.34196 7.77936 9.5 7.39782 9.5 7C9.5 6.60218 9.34196 6.22064 9.06066 5.93934C8.77936 5.65804 8.39782 5.5 8 5.5C7.60218 5.5 7.22064 5.65804 6.93934 5.93934C6.65804 6.22064 6.5 6.60218 6.5 7C6.5 7.39782 6.65804 7.77936 6.93934 8.06066C7.22064 8.34196 7.60218 8.5 8 8.5ZM8 9.5C7.33696 9.5 6.70107 9.23661 6.23223 8.76777C5.76339 8.29893 5.5 7.66304 5.5 7C5.5 6.33696 5.76339 5.70107 6.23223 5.23223C6.70107 4.76339 7.33696 4.5 8 4.5C8.66304 4.5 9.29893 4.76339 9.76777 5.23223C10.2366 5.70107 10.5 6.33696 10.5 7C10.5 7.66304 10.2366 8.29893 9.76777 8.76777C9.29893 9.23661 8.66304 9.5 8 9.5Z" fill="white" fill-opacity="0.6"/>
</svg>
