<svg width="25" height="24" viewBox="0 0 25 24" fill="none" xmlns="http://www.w3.org/2000/svg">
<path d="M21.3125 12C21.3125 12.1492 21.2532 12.2923 21.1477 12.3977C21.0423 12.5032 20.8992 12.5625 20.75 12.5625H4.25C4.10082 12.5625 3.95774 12.5032 3.85225 12.3977C3.74676 12.2923 3.6875 12.1492 3.6875 12C3.6875 11.8508 3.74676 11.7077 3.85225 11.6023C3.95774 11.4968 4.10082 11.4375 4.25 11.4375H20.75C20.8992 11.4375 21.0423 11.4968 21.1477 11.6023C21.2532 11.7077 21.3125 11.8508 21.3125 12ZM4.25 6.5625H20.75C20.8992 6.5625 21.0423 6.50324 21.1477 6.39775C21.2532 6.29226 21.3125 6.14918 21.3125 6C21.3125 5.85082 21.2532 5.70774 21.1477 5.60225C21.0423 5.49676 20.8992 5.4375 20.75 5.4375H4.25C4.10082 5.4375 3.95774 5.49676 3.85225 5.60225C3.74676 5.70774 3.6875 5.85082 3.6875 6C3.6875 6.14918 3.74676 6.29226 3.85225 6.39775C3.95774 6.50324 4.10082 6.5625 4.25 6.5625ZM20.75 17.4375H4.25C4.10082 17.4375 3.95774 17.4968 3.85225 17.6023C3.74676 17.7077 3.6875 17.8508 3.6875 18C3.6875 18.1492 3.74676 18.2923 3.85225 18.3977C3.95774 18.5032 4.10082 18.5625 4.25 18.5625H20.75C20.8992 18.5625 21.0423 18.5032 21.1477 18.3977C21.2532 18.2923 21.3125 18.1492 21.3125 18C21.3125 17.8508 21.2532 17.7077 21.1477 17.6023C21.0423 17.4968 20.8992 17.4375 20.75 17.4375Z" fill="#5E5F60"/>
</svg>
