<svg width="24" height="24" viewBox="0 0 24 24" fill="none" xmlns="http://www.w3.org/2000/svg">
<path d="M6 17.983C4.447 17.936 3.52 17.763 2.879 17.121C2 16.243 2 14.828 2 12C2 9.172 2 7.757 2.879 6.879C3.757 6 5.172 6 8 6H16C18.828 6 20.243 6 21.121 6.879C22 7.757 22 9.172 22 12C22 14.828 22 16.243 21.121 17.121C20.48 17.763 19.554 17.936 18 17.983" stroke="#20473E" stroke-width="1.5"/>
<path opacity="0.5" d="M9 10H6" stroke="#20473E" stroke-width="1.5" stroke-linecap="round"/>
<path d="M19 14H5M18 14V16C18 18.828 18 20.243 17.121 21.121C16.243 22 14.828 22 12 22C9.172 22 7.757 22 6.879 21.121C6 20.243 6 18.828 6 16V14" stroke="#20473E" stroke-width="1.5" stroke-linecap="round"/>
<path opacity="0.5" d="M17.983 6C17.936 4.447 17.763 3.52 17.121 2.879C16.243 2 14.828 2 12 2C9.172 2 7.757 2 6.879 2.879C6.237 3.52 6.064 4.447 6.017 6" stroke="#20473E" stroke-width="1.5"/>
<path opacity="0.5" d="M17 11C17.5523 11 18 10.5523 18 10C18 9.44772 17.5523 9 17 9C16.4477 9 16 9.44772 16 10C16 10.5523 16.4477 11 17 11Z" fill="#20473E"/>
<path opacity="0.5" d="M15 16.5H9M13 19H9" stroke="#20473E" stroke-width="1.5" stroke-linecap="round"/>
</svg>
