<svg width="20" height="20" viewBox="0 0 20 20" fill="none" xmlns="http://www.w3.org/2000/svg">
<path d="M19.973 4.68C19.9719 4.32015 19.9391 3.96109 19.875 3.607C19.803 3.17363 19.6662 2.75358 19.469 2.361C19.2532 1.94864 18.9723 1.57381 18.637 1.251C18.1307 0.755447 17.5052 0.398653 16.821 0.215C16.1928 0.0626461 15.5472 -0.00628022 14.901 0.00999999L14.898 0H5.09899V0.00999999C4.73137 0.00735866 4.36386 0.0240483 3.99799 0.0599999C3.59714 0.102501 3.20254 0.191086 2.82199 0.324C2.19492 0.56034 1.63241 0.941217 1.18014 1.43571C0.727867 1.93021 0.398572 2.52438 0.218988 3.17C0.0676913 3.79331 -0.0012296 4.43377 0.0139883 5.075L0.00798825 14.913C0.00648484 15.3589 0.0365602 15.8043 0.0979884 16.246C0.165168 16.7126 0.303438 17.1662 0.507988 17.591C0.795939 18.1585 1.20611 18.6551 1.70899 19.045C2.06854 19.3311 2.47579 19.5515 2.91199 19.696C3.55184 19.8936 4.21833 19.9914 4.88799 19.986C5.30799 19.989 5.72699 20 6.14599 19.998C9.19299 19.985 12.24 20.02 15.286 19.979C15.6888 19.9704 16.0903 19.9279 16.486 19.852C17.2331 19.7202 17.9284 19.3818 18.493 18.875C19.158 18.2967 19.6223 17.5221 19.819 16.663C19.9403 16.0877 19.9983 15.5009 19.992 14.913V14.796C19.992 14.75 19.975 4.812 19.973 4.681M17.297 13.931C17.169 14.231 16.523 14.479 15.429 14.648C15.327 14.664 15.283 14.83 15.224 15.102C15.2 15.214 15.174 15.324 15.141 15.439C15.1309 15.4877 15.1034 15.531 15.0636 15.5608C15.0238 15.5907 14.9745 15.605 14.925 15.601H14.907C14.8027 15.597 14.6989 15.5836 14.597 15.561C14.3269 15.5048 14.0519 15.476 13.776 15.475C13.5776 15.4755 13.3796 15.4922 13.184 15.525C12.7713 15.6296 12.3875 15.8258 12.061 16.099C11.5091 16.5699 10.8158 16.843 10.091 16.875C10.0536 16.8749 10.0163 16.8739 9.97899 16.872C9.95471 16.874 9.93035 16.875 9.90599 16.875C9.18116 16.8433 8.48774 16.5701 7.93599 16.099C7.60941 15.8259 7.22561 15.6297 6.81299 15.525C6.61735 15.4922 6.41936 15.4755 6.22099 15.475C5.9452 15.478 5.67044 15.5091 5.40099 15.568C5.29878 15.5916 5.19473 15.6063 5.08999 15.612C5.03721 15.6182 4.98402 15.6045 4.94077 15.5736C4.89752 15.5428 4.8673 15.4969 4.85599 15.445C4.82348 15.3329 4.79578 15.2195 4.77299 15.105C4.71299 14.832 4.66999 14.665 4.56799 14.649C3.47399 14.481 2.82799 14.232 2.69899 13.931C2.68577 13.9009 2.67798 13.8688 2.67599 13.836C2.67368 13.7928 2.68741 13.7502 2.71453 13.7164C2.74165 13.6827 2.78026 13.6601 2.82299 13.653C3.72771 13.4893 4.54297 13.0046 5.11899 12.288C5.4354 11.9208 5.69833 11.5108 5.89999 11.07L5.90399 11.062C5.96368 10.9644 6.00132 10.855 6.01427 10.7413C6.02723 10.6276 6.01519 10.5125 5.97899 10.404C5.83899 10.072 5.37199 9.924 5.06299 9.826C4.99323 9.80498 4.92419 9.78163 4.85599 9.756C4.58199 9.648 4.13199 9.419 4.19199 9.104C4.23779 8.98526 4.31959 8.88381 4.42593 8.81388C4.53226 8.74394 4.65781 8.70902 4.78499 8.714C4.84691 8.71258 4.90838 8.72487 4.96499 8.75C5.19531 8.86803 5.44842 8.93489 5.70699 8.946C5.86098 8.95705 6.01357 8.91035 6.13499 8.815C6.12699 8.669 6.11799 8.523 6.10799 8.377C5.96757 7.39145 6.02777 6.3877 6.28499 5.426C6.58731 4.7354 7.08636 4.14915 7.71985 3.74047C8.35333 3.33178 9.09317 3.11876 9.84699 3.128L10.142 3.126C10.8967 3.11636 11.6375 3.32914 12.272 3.7378C12.9065 4.14647 13.4066 4.73292 13.71 5.424C13.9671 6.38708 14.027 7.3922 13.886 8.379L13.883 8.426L13.86 8.815C13.9702 8.90231 14.1074 8.9483 14.248 8.945C14.4919 8.92665 14.7297 8.86039 14.948 8.75C15.0199 8.71865 15.0976 8.70297 15.176 8.704C15.2654 8.7037 15.354 8.72068 15.437 8.754L15.441 8.756C15.5348 8.77834 15.6198 8.82814 15.6852 8.89903C15.7506 8.96992 15.7933 9.05869 15.808 9.154C15.811 9.307 15.698 9.535 15.139 9.756C15.082 9.778 15.009 9.802 14.932 9.826C14.622 9.924 14.156 10.072 14.016 10.404C13.9797 10.5123 13.9676 10.6272 13.9803 10.7407C13.9931 10.8542 14.0305 10.9635 14.09 11.061L14.094 11.07C14.3735 11.7086 14.7968 12.2739 15.3309 12.7218C15.8651 13.1697 16.4955 13.4881 17.173 13.652C17.2155 13.6593 17.2539 13.682 17.2808 13.7157C17.3077 13.7494 17.3213 13.7919 17.319 13.835C17.3171 13.8681 17.3093 13.9006 17.296 13.931" fill="#FFFF00"/>
</svg>
