<svg width="12" height="10" viewBox="0 0 12 10" fill="none" xmlns="http://www.w3.org/2000/svg">
<path d="M7.01244 0.735068L7.85507 2.35132C7.91774 2.4703 8.00771 2.57273 8.11761 2.65023C8.22751 2.72773 8.3542 2.7781 8.48731 2.79719L10.2671 3.04094C11.2188 3.17219 11.5878 4.34557 10.8839 4.99807L9.66519 6.12269C9.5613 6.21815 9.48332 6.3384 9.43853 6.47218C9.39373 6.60597 9.3836 6.74893 9.40907 6.88769L9.70644 8.53694C9.87182 9.45569 8.91594 10.1719 8.07706 9.75194L6.37607 8.90819C6.25896 8.85089 6.13031 8.8211 5.99994 8.8211C5.86957 8.8211 5.74092 8.85089 5.62381 8.90819L3.92282 9.75194C3.08357 10.1682 2.12807 9.45569 2.29344 8.53694L2.59082 6.88732C2.64332 6.60607 2.54582 6.31732 2.33507 6.12232L1.11594 4.99807C0.412065 4.34932 0.781065 3.17182 1.73281 3.04057L3.51256 2.79682C3.64607 2.77891 3.77327 2.72902 3.88335 2.65139C3.99343 2.57376 4.08313 2.47069 4.14481 2.35094L4.98781 0.735068C5.41681 -0.0786816 6.58681 -0.0786816 7.01206 0.735068" fill="#FCD53F"/>
</svg>
