<svg width="12" height="14" viewBox="0 0 12 14" fill="none" xmlns="http://www.w3.org/2000/svg">
<path d="M6.00002 0.599976C5.15133 0.599976 4.3374 0.937118 3.73728 1.53723C3.13717 2.13735 2.80002 2.95128 2.80002 3.79998C2.80002 4.64867 3.13717 5.4626 3.73728 6.06272C4.3374 6.66283 5.15133 6.99998 6.00002 6.99998C6.84872 6.99998 7.66265 6.66283 8.26277 6.06272C8.86288 5.4626 9.20002 4.64867 9.20002 3.79998C9.20002 2.95128 8.86288 2.13735 8.26277 1.53723C7.66265 0.937118 6.84872 0.599976 6.00002 0.599976ZM3.60002 3.79998C3.60002 3.16346 3.85288 2.55301 4.30297 2.10292C4.75306 1.65283 5.3635 1.39998 6.00002 1.39998C6.63654 1.39998 7.24699 1.65283 7.69708 2.10292C8.14717 2.55301 8.40002 3.16346 8.40002 3.79998C8.40002 4.4365 8.14717 5.04695 7.69708 5.49703C7.24699 5.94712 6.63654 6.19998 6.00002 6.19998C5.3635 6.19998 4.75306 5.94712 4.30297 5.49703C3.85288 5.04695 3.60002 4.4365 3.60002 3.79998ZM2.00722 7.79998C1.79653 7.79913 1.58775 7.83989 1.39284 7.91991C1.19794 7.99993 1.02075 8.11764 0.871432 8.26629C0.722116 8.41494 0.603612 8.5916 0.522717 8.78614C0.441823 8.98068 0.400128 9.18928 0.400024 9.39998C0.400024 10.7528 1.06642 11.7728 2.10802 12.4376C3.13362 13.0912 4.51602 13.4 6.00002 13.4C7.48402 13.4 8.86642 13.0912 9.89202 12.4376C10.9336 11.7736 11.6 10.752 11.6 9.39998C11.6 8.97563 11.4315 8.56866 11.1314 8.26861C10.8313 7.96855 10.4244 7.79998 10 7.79998H2.00722ZM1.20002 9.39998C1.20002 8.95758 1.55842 8.59998 2.00722 8.59998H10C10.2122 8.59998 10.4157 8.68426 10.5657 8.83429C10.7157 8.98432 10.8 9.1878 10.8 9.39998C10.8 10.4472 10.3024 11.2272 9.46162 11.7624C8.60562 12.3088 7.38802 12.6 6.00002 12.6C4.61202 12.6 3.39442 12.3088 2.53842 11.7624C1.69842 11.2264 1.20002 10.448 1.20002 9.39998Z" fill="#969696"/>
</svg>
