<svg width="24" height="24" viewBox="0 0 24 24" fill="none" xmlns="http://www.w3.org/2000/svg">
<path d="M15.5817 14.5589C14.595 13.6819 13.3207 13.1974 12.0005 13.1974C10.6803 13.1974 9.40597 13.6819 8.41922 14.5589M18.4434 11.6972C16.6958 10.0631 14.3926 9.15399 12 9.15399C9.6074 9.15399 7.30417 10.0631 5.55656 11.6972" stroke="#20473E" stroke-width="1.5" stroke-linecap="round" stroke-linejoin="round"/>
<path d="M20.9869 8.53638C18.5134 6.32985 15.3146 5.11041 12 5.11041C8.68537 5.11041 5.48658 6.32985 3.01312 8.53638" stroke="#20473E" stroke-width="1.5" stroke-linecap="round" stroke-linejoin="round"/>
<path d="M12 19.5C11.7033 19.5 11.4133 19.412 11.1666 19.2472C10.92 19.0824 10.7277 18.8481 10.6142 18.574C10.5006 18.2999 10.4709 17.9983 10.5288 17.7074C10.5867 17.4164 10.7296 17.1491 10.9393 16.9393C11.1491 16.7296 11.4164 16.5867 11.7074 16.5288C11.9983 16.4709 12.2999 16.5006 12.574 16.6142C12.8481 16.7277 13.0824 16.92 13.2472 17.1666C13.412 17.4133 13.5 17.7033 13.5 18C13.5 18.3978 13.342 18.7794 13.0607 19.0607C12.7794 19.342 12.3978 19.5 12 19.5Z" fill="#20473E"/>
</svg>
